Coordinates
version=1
nRows=14
nColumns=63
inDegrees=yes

Units are S.I. units (second, meters, Newtons, ...)
If the header above contains a line with 'inDegrees', this indicates whether rotational values are in degrees (yes) or radians (no).

endheader
time	pelvis_tilt	pelvis_list	pelvis_rotation	pelvis_tx	pelvis_ty	pelvis_tz	hip_flexion_r	hip_adduction_r	hip_rotation_r	knee_angle_r	knee_angle_r_beta	ankle_angle_r	subtalar_angle_r	mtp_angle_r	hip_flexion_l	hip_adduction_l	hip_rotation_l	knee_angle_l	knee_angle_l_beta	ankle_angle_l	subtalar_angle_l	mtp_angle_l	L5_S1_Flex_Ext	L5_S1_Lat_Bending	L5_S1_axial_rotation	L4_L5_Flex_Ext	L4_L5_Lat_Bending	L4_L5_axial_rotation	L3_L4_Flex_Ext	L3_L4_Lat_Bending	L3_L4_axial_rotation	L2_L3_Flex_Ext	L2_L3_Lat_Bending	L2_L3_axial_rotation	L1_L2_Flex_Ext	L1_L2_Lat_Bending	L1_L2_axial_rotation	L1_T12_Flex_Ext	L1_T12_Lat_Bending	L1_T12_axial_rotation	Abs_r3	Abs_r2	Abs_r1	Abs_t1	Abs_t2	neck_flexion	neck_bending	neck_rotation	arm_flex_r	arm_add_r	arm_rot_r	elbow_flex_r	pro_sup_r	wrist_flex_r	wrist_dev_r	arm_flex_l	arm_add_l	arm_rot_l	elbow_flex_l	pro_sup_l	wrist_flex_l	wrist_dev_l
3.000000	-2.830037	-4.422968	86.244919	0.206086	0.951358	0.532076	7.403899	-4.964626	-8.940401	13.649388	0.238227	27.187117	15.655545	0.000000	7.108020	2.917385	0.798655	11.284419	0.196950	21.716500	-11.990331	0.000000	0.149589	-0.363562	2.154461	0.277802	-0.483538	2.289115	0.245760	-0.883965	2.289115	0.170966	-0.883965	1.885154	0.138909	-0.741376	1.750500	0.085475	-0.563158	1.615846	1.068501	-4.112689	11.982468	0.000000	0.000000	25.781609	0.182473	-12.295796	10.945825	-10.639802	48.131675	36.980238	56.399556	7.365003	10.153294	24.722406	-9.367107	83.607432	37.157913	62.669574	9.471256	-11.231310
3.016949	-2.877390	-4.501877	86.206936	0.206060	0.951384	0.531796	7.442781	-4.999876	-8.924819	13.578316	0.236986	27.116884	15.652488	0.000000	7.149811	2.960735	0.812525	11.227216	0.195952	21.635522	-11.935195	0.000000	0.155231	-0.374150	2.162609	0.288280	-0.497619	2.297772	0.255030	-0.909707	2.297772	0.177414	-0.909707	1.892283	0.144148	-0.762966	1.757120	0.088699	-0.579558	1.621957	1.108802	-4.232455	12.027784	0.000000	0.000000	26.125680	0.256727	-12.175925	11.054645	-10.587762	47.813871	37.022251	55.106958	7.271569	10.178016	24.655674	-9.375193	82.477985	37.374346	62.599481	9.681783	-10.083573
3.033898	-2.897194	-4.578263	86.174345	0.205952	0.951402	0.531512	7.467745	-5.013955	-8.952045	13.492155	0.235483	27.032964	15.694539	0.000000	7.197270	2.987522	0.930979	11.193081	0.195356	21.539876	-12.033027	0.000000	0.162081	-0.379895	2.168583	0.301001	-0.505260	2.304120	0.266283	-0.923676	2.304120	0.185242	-0.923676	1.897510	0.150508	-0.774681	1.761974	0.092613	-0.588457	1.626437	1.157728	-4.297446	12.061009	0.000000	0.000000	26.446205	0.330210	-12.008925	11.184881	-10.569911	47.520029	37.049501	54.008509	7.208375	10.116693	24.605818	-9.311176	81.456688	37.486834	62.225441	9.989627	-9.007771
3.050847	-2.897634	-4.639838	86.123978	0.205805	0.951417	0.531238	7.482260	-5.012792	-8.976423	13.412815	0.234098	26.955775	15.757432	0.000000	7.229576	2.991778	0.991761	11.164526	0.194858	21.479841	-12.084884	0.000000	0.167755	-0.381608	2.175919	0.311538	-0.507538	2.311913	0.275605	-0.927841	2.311913	0.191727	-0.927841	1.903929	0.155777	-0.778174	1.767934	0.095855	-0.591110	1.631939	1.198259	-4.316823	12.101806	0.000000	0.000000	26.738184	0.401515	-11.795338	11.337321	-10.583816	47.295271	37.056742	53.046815	7.184189	10.019560	24.591234	-9.208747	80.610967	37.548288	61.462751	10.357131	-7.958907
3.067797	-2.873451	-4.688959	86.089525	0.205575	0.951431	0.530980	7.479661	-4.996376	-9.054423	13.332762	0.232701	26.885767	15.864298	0.000000	7.250992	2.980614	1.114334	11.141676	0.194459	21.390561	-12.253128	0.000000	0.172216	-0.378923	2.177883	0.319822	-0.503967	2.314001	0.282933	-0.921313	2.314001	0.196825	-0.921313	1.905648	0.159920	-0.772700	1.769530	0.098404	-0.586952	1.633413	1.230120	-4.286451	12.112734	0.000000	0.000000	26.990608	0.456828	-11.576927	11.478915	-10.624161	47.090788	37.058684	52.380797	7.214533	9.891068	24.595945	-9.094478	79.900394	37.609706	60.281443	10.769025	-6.813580
3.084746	-2.848170	-4.728896	86.040026	0.205318	0.951443	0.530758	7.480829	-4.982645	-9.109946	13.269534	0.231597	26.831571	15.969767	0.000000	7.264696	2.967514	1.200033	11.121576	0.194108	21.298533	-12.419111	0.000000	0.176056	-0.374377	2.179143	0.326954	-0.497922	2.315339	0.289242	-0.910261	2.315339	0.201214	-0.910261	1.906750	0.163486	-0.763430	1.770554	0.100598	-0.579910	1.634357	1.257550	-4.235030	12.119739	0.000000	0.000000	27.201681	0.555257	-11.278020	11.609745	-10.676951	46.957917	37.044403	51.894125	7.315050	9.794203	24.640488	-8.972260	79.458085	37.638141	58.851335	11.156038	-5.813651
3.101695	-2.813194	-4.747077	85.993970	0.205017	0.951478	0.530551	7.463672	-4.965400	-9.169523	13.214436	0.230635	26.785440	16.086912	0.000000	7.256260	2.951670	1.318642	11.104515	0.193810	21.181884	-12.667743	0.000000	0.177887	-0.367487	2.178569	0.330354	-0.488757	2.314729	0.292250	-0.893507	2.314729	0.203307	-0.893507	1.906248	0.165186	-0.749379	1.770087	0.101645	-0.569237	1.633927	1.270628	-4.157082	12.116546	0.000000	0.000000	27.350394	0.663674	-10.969291	11.719555	-10.740430	46.891212	37.005363	51.723079	7.514704	9.714720	24.708410	-8.839192	79.279804	37.642468	57.069104	11.549017	-4.860240
3.118644	-2.791651	-4.754060	85.951313	0.204715	0.951508	0.530376	7.447247	-4.965552	-9.223047	13.178983	0.230017	26.764221	16.200000	0.000000	7.235052	2.955590	1.467733	11.078366	0.193354	21.043820	-12.991866	0.000000	0.178667	-0.362285	2.175178	0.331803	-0.481838	2.311126	0.293532	-0.880859	2.311126	0.204199	-0.880859	1.903280	0.165910	-0.738771	1.767332	0.102090	-0.561179	1.631383	1.276201	-4.098235	12.097686	0.000000	0.000000	27.443129	0.806285	-10.688026	11.839237	-10.825340	47.088494	36.968780	51.480221	7.690547	9.645614	24.743589	-8.743739	79.083742	37.656116	55.915125	11.849633	-4.100764
3.135593	-2.778704	-4.742472	85.913481	0.204451	0.951545	0.530224	7.416556	-4.970611	-9.231423	13.148509	0.229485	26.753204	16.259670	0.000000	7.201903	2.960604	1.510285	11.063593	0.193096	20.963363	-13.182235	0.000000	0.177611	-0.359175	2.173565	0.329842	-0.477702	2.309413	0.291798	-0.873297	2.309413	0.202992	-0.873297	1.901870	0.164930	-0.732429	1.766022	0.101487	-0.556361	1.630174	1.268660	-4.063055	12.088719	0.000000	0.000000	27.480596	0.956397	-10.504407	11.943479	-10.912320	47.438821	36.922782	51.329182	7.864050	9.576524	24.776235	-8.685170	79.043702	37.701487	54.832404	12.074125	-3.431103
3.152542	-2.781475	-4.718256	85.876442	0.204239	0.951570	0.530093	7.381867	-4.988000	-9.200876	13.130059	0.229163	26.756776	16.278944	0.000000	7.162286	2.975699	1.467493	11.055620	0.192957	20.942319	-13.263698	0.000000	0.175576	-0.358965	2.175954	0.326061	-0.477423	2.311951	0.288453	-0.872787	2.311951	0.200665	-0.872787	1.903960	0.163039	-0.732001	1.767963	0.100324	-0.556036	1.631966	1.254119	-4.060680	12.102004	0.000000	0.000000	27.473573	1.088831	-10.438054	12.010052	-10.984462	47.828089	36.867483	51.429843	8.056613	9.529113	24.798304	-8.663533	79.137688	37.763749	53.965955	12.212512	-2.960154
3.169492	-2.795097	-4.677365	85.851659	0.204030	0.951589	0.529949	7.339360	-5.023270	-9.194771	13.139368	0.229325	26.787136	16.325280	0.000000	7.109145	3.006884	1.407972	11.050831	0.192873	20.940136	-13.343926	0.000000	0.173479	-0.360162	2.178192	0.322168	-0.479015	2.314329	0.285009	-0.875698	2.314329	0.198269	-0.875698	1.905918	0.161093	-0.734442	1.769781	0.099126	-0.557891	1.633644	1.239143	-4.074224	12.114448	0.000000	0.000000	27.396344	1.219815	-10.432218	12.061821	-11.051615	48.330611	36.788786	51.734740	8.248721	9.487418	24.829732	-8.659017	79.456722	37.795808	53.367459	12.246170	-2.839115
3.186441	-2.823078	-4.640411	85.858285	0.203807	0.951575	0.529820	7.296475	-5.074501	-9.210484	13.145360	0.229430	26.831090	16.367171	0.000000	7.067205	3.054496	1.342087	11.050722	0.192871	20.982077	-13.352028	0.000000	0.171383	-0.363590	2.177087	0.318276	-0.483574	2.313155	0.281565	-0.884032	2.313155	0.195874	-0.884032	1.904951	0.159146	-0.741432	1.768884	0.097928	-0.563200	1.632816	1.224173	-4.112998	12.108307	0.000000	0.000000	27.335245	1.308673	-10.508887	12.088459	-11.089074	48.822585	36.673655	52.238683	8.490386	9.463587	24.831058	-8.680888	79.835816	37.814655	52.806321	12.261053	-2.956636
3.203390	-2.859732	-4.604053	85.863250	0.203645	0.951541	0.529696	7.249161	-5.117870	-9.119781	13.132692	0.229209	26.866392	16.268991	0.000000	7.035930	3.091905	1.085926	11.068227	0.193177	21.125395	-13.067689	0.000000	0.168975	-0.369026	2.177532	0.313804	-0.490804	2.313628	0.277610	-0.897249	2.313628	0.193122	-0.897249	1.905340	0.156911	-0.752517	1.769245	0.096553	-0.571621	1.633149	1.206975	-4.174492	12.110779	0.000000	0.000000	27.276595	1.369612	-10.650320	12.129474	-11.105165	49.408034	36.523283	52.848402	8.698000	9.442000	24.832249	-8.735766	80.298428	37.840635	52.429731	12.161600	-3.298563
3.220339	-2.903018	-4.574659	85.902560	0.203426	0.951492	0.529550	7.198233	-5.174038	-9.081383	13.112830	0.228862	26.909899	16.202034	0.000000	7.010476	3.150860	0.945917	11.078749	0.193361	21.230142	-12.901664	0.000000	0.166909	-0.374483	2.172458	0.309966	-0.498062	2.308237	0.274215	-0.910517	2.308237	0.190760	-0.910517	1.900901	0.154992	-0.763645	1.765122	0.095372	-0.580073	1.629344	1.192213	-4.236222	12.082561	0.000000	0.000000	27.243898	1.417028	-10.751817	12.144253	-11.086221	49.878560	36.335505	53.593301	8.943346	9.490494	24.853909	-8.790240	80.925005	37.847102	51.809741	12.039970	-3.772771
